<svg width="96" height="96" xmlns="http://www.w3.org/2000/svg" xmlns:xlink="http://www.w3.org/1999/xlink" xml:space="preserve" overflow="hidden"><g transform="translate(-1154 -417)"><path d="M1239.4 475.7 1239.4 468.6C1239.4 463.8 1231.7 460.6 1222.4 459.3L1222.4 453.6C1222.4 452 1221.5 449.8 1217.4 447.7L1217.4 440.6C1217.4 434.1 1203.5 430.6 1190.4 430.6 1177.3 430.6 1163.4 434.1 1163.4 440.6L1163.4 448.6C1163.4 451 1165.3 453 1168.4 454.6L1168.4 461.6C1168.4 461.6 1168.4 461.6 1168.4 461.7 1164.3 463.8 1163.4 466.1 1163.4 467.6L1163.4 475.6C1163.4 482.1 1177.3 485.6 1190.4 485.6L1190.4 489.6C1190.4 496.1 1204.3 499.6 1217.4 499.6 1230.5 499.6 1244.4 496.1 1244.4 489.6L1244.4 481.6C1244.4 480.1 1243.5 477.8 1239.4 475.7ZM1242.4 481.7C1242.4 485.5 1232.1 489.7 1217.4 489.7 1205.7 489.7 1196.8 487 1193.6 484 1193.6 484 1193.6 484 1193.6 484 1199.7 485.9 1206 486.8 1212.3 486.7 1224.5 486.7 1237.5 483.6 1239.1 478 1241.3 479.1 1242.4 480.4 1242.4 481.7ZM1225.4 491.2 1225.4 497.2C1224.1 497.3 1222.8 497.5 1221.4 497.5L1221.4 491.5C1222.8 491.5 1224.1 491.4 1225.4 491.2ZM1227.4 491C1228.8 490.8 1230.1 490.6 1231.4 490.3L1231.4 496.2C1230.2 496.5 1228.8 496.7 1227.4 496.9L1227.4 491ZM1233.4 489.8C1234.8 489.5 1236.1 489 1237.4 488.5L1237.4 494.3C1236.1 494.9 1234.8 495.3 1233.4 495.7L1233.4 489.8ZM1201.4 495.7C1200 495.3 1198.7 494.9 1197.4 494.3L1197.4 488.5C1198.7 489 1200 489.4 1201.4 489.8L1201.4 495.7ZM1203.4 490.3C1204.7 490.6 1206 490.8 1207.4 491L1207.4 497C1206 496.8 1204.6 496.5 1203.4 496.3L1203.4 490.3ZM1209.4 491.2C1210.7 491.3 1212.1 491.5 1213.4 491.5L1213.4 497.5C1212 497.4 1210.7 497.3 1209.4 497.2L1209.4 491.2ZM1185.4 468.7 1185.4 469C1184 468.8 1182.6 468.5 1181.4 468.3L1181.4 462.4C1182.7 462.7 1184 462.9 1185.4 463.1L1185.4 468.7ZM1187.4 476.7 1187.4 472.7C1188.3 473.5 1189.3 474.2 1190.4 474.7L1190.4 480.4C1188.5 479.1 1187.4 477.9 1187.4 476.7L1187.4 476.7ZM1237.4 476.7C1237.4 477.9 1236.3 479.2 1234.4 480.3L1234.4 474.6C1235.5 474.1 1236.5 473.4 1237.4 472.6L1237.4 476.7ZM1232.4 481.3C1231.1 481.9 1229.8 482.3 1228.4 482.7L1228.4 476.8C1229.8 476.5 1231.1 476 1232.4 475.5L1232.4 481.3ZM1226.4 483.2C1225.2 483.5 1223.8 483.7 1222.4 483.9L1222.4 477.9C1223.8 477.7 1225.1 477.5 1226.4 477.2L1226.4 483.2ZM1220.4 484.2C1219.1 484.3 1217.8 484.5 1216.4 484.5L1216.4 478.5C1217.7 478.4 1219.1 478.3 1220.4 478.2L1220.4 484.2ZM1214.4 484.6C1213.7 484.6 1213.1 484.6 1212.4 484.6 1211.7 484.6 1211.1 484.6 1210.4 484.6L1210.4 478.6C1211.1 478.6 1211.7 478.6 1212.4 478.6 1213.1 478.6 1213.7 478.6 1214.4 478.6L1214.4 484.6ZM1208.4 484.6C1207 484.5 1205.7 484.4 1204.4 484.3L1204.4 478.3C1205.7 478.4 1207.1 478.6 1208.4 478.6L1208.4 484.6ZM1202.4 484C1201 483.8 1199.6 483.5 1198.4 483.3L1198.4 477.4C1199.7 477.7 1201 477.9 1202.4 478.1L1202.4 484ZM1196.4 482.7C1195 482.3 1193.7 481.9 1192.4 481.3L1192.4 475.5C1193.7 476 1195 476.4 1196.4 476.8L1196.4 482.7ZM1237.4 468.7C1237.4 472.5 1227.1 476.7 1212.4 476.7 1197.7 476.7 1187.4 472.5 1187.4 468.7 1187.4 464.9 1197.7 460.7 1212.4 460.7 1227.1 460.7 1237.4 464.9 1237.4 468.7ZM1187.4 464.7 1187.4 463.2C1188 463.3 1188.6 463.3 1189.2 463.4 1188.6 463.8 1188 464.2 1187.4 464.7ZM1218.7 458.9C1219.3 458.5 1219.9 458.1 1220.5 457.6L1220.5 459.1C1219.8 459 1219.3 459 1218.7 458.9ZM1217.2 449.9C1219.3 451.1 1220.4 452.4 1220.4 453.6 1220.4 455.3 1218.2 457.2 1214.5 458.6 1213.8 458.6 1213.1 458.6 1212.4 458.6 1205.4 458.6 1198.1 459.6 1192.9 461.6 1182.4 461.3 1174.6 458.8 1171.7 456 1171.7 456 1171.7 456 1171.7 456 1177.8 457.9 1184.1 458.8 1190.4 458.7 1202.6 458.7 1215.6 455.6 1217.2 449.9ZM1179.4 461.8 1179.4 467.7C1178 467.3 1176.7 466.9 1175.4 466.3L1175.4 460.5C1176.7 461 1178.1 461.5 1179.4 461.8ZM1173.4 459.6 1173.4 465.3C1171.5 464.1 1170.4 462.9 1170.4 461.7L1170.4 457.7C1171.3 458.4 1172.3 459.1 1173.4 459.6ZM1170.4 453.3 1170.4 447.5C1171.7 448 1173 448.4 1174.4 448.8L1174.4 454.7C1173.1 454.3 1171.7 453.9 1170.4 453.3ZM1176.4 455.2 1176.4 449.3C1177.7 449.6 1179 449.8 1180.4 450L1180.4 456C1179 455.8 1177.7 455.5 1176.4 455.2ZM1182.4 456.2 1182.4 450.2C1183.7 450.3 1185.1 450.5 1186.4 450.5L1186.4 456.5C1185 456.5 1183.7 456.4 1182.4 456.2ZM1188.4 456.6 1188.4 450.6C1189.1 450.6 1189.7 450.6 1190.4 450.6 1191.1 450.6 1191.7 450.6 1192.4 450.6L1192.4 456.6C1191.7 456.6 1191.1 456.6 1190.4 456.6 1189.7 456.6 1189.1 456.7 1188.4 456.6ZM1194.4 456.6 1194.4 450.6C1195.7 450.5 1197.1 450.4 1198.4 450.3L1198.4 456.3C1197.1 456.4 1195.8 456.5 1194.4 456.6ZM1200.4 456 1200.4 450C1201.8 449.8 1203.1 449.6 1204.4 449.3L1204.4 455.2C1203.2 455.5 1201.8 455.8 1200.4 456ZM1206.4 454.7 1206.4 448.8C1207.8 448.5 1209.1 448 1210.4 447.5L1210.4 453.3C1209.1 453.9 1207.8 454.3 1206.4 454.7ZM1212.4 452.3 1212.4 446.6C1213.5 446.1 1214.5 445.4 1215.4 444.6L1215.4 448.6C1215.4 449.9 1214.4 451.1 1212.4 452.3ZM1168.4 452.3C1166.5 451.1 1165.4 449.9 1165.4 448.7L1165.4 444.7C1166.3 445.5 1167.3 446.2 1168.4 446.7L1168.4 452.3ZM1165.4 440.7C1165.4 436.9 1175.7 432.7 1190.4 432.7 1205.1 432.7 1215.4 436.9 1215.4 440.7 1215.4 444.5 1205.1 448.7 1190.4 448.7 1175.7 448.7 1165.4 444.4 1165.4 440.7ZM1168.9 463.7C1170.7 467.4 1177.5 469.8 1185.4 470.9L1185.4 475.4C1173.4 474.6 1165.4 470.9 1165.4 467.6 1165.4 466.3 1166.7 465 1168.9 463.7ZM1168.4 479.3C1166.5 478.1 1165.4 476.9 1165.4 475.7L1165.4 471.7C1166.3 472.5 1167.3 473.2 1168.4 473.7L1168.4 479.3ZM1174.4 481.7C1173 481.3 1171.7 480.9 1170.4 480.3L1170.4 474.5C1171.7 475 1173 475.4 1174.4 475.8L1174.4 481.7ZM1180.4 483C1179 482.8 1177.6 482.5 1176.4 482.3L1176.4 476.4C1177.7 476.7 1179 476.9 1180.4 477.1L1180.4 483ZM1182.4 477.2C1183.4 477.3 1184.4 477.4 1185.5 477.5 1185.6 478.2 1186 478.9 1186.4 479.6L1186.4 483.6C1185 483.5 1183.7 483.4 1182.4 483.3L1182.4 477.2ZM1188.4 481.4C1189 481.8 1189.7 482.2 1190.4 482.6L1190.4 483.6C1189.7 483.6 1189.1 483.6 1188.4 483.6L1188.4 481.4ZM1192.4 489.7 1192.4 485.7C1193.3 486.5 1194.3 487.2 1195.4 487.7L1195.4 493.4C1193.5 492.1 1192.4 490.9 1192.4 489.7L1192.4 489.7ZM1215.4 491.6C1216.1 491.6 1216.7 491.6 1217.4 491.6 1218.1 491.6 1218.7 491.6 1219.4 491.6L1219.4 497.6C1218.7 497.6 1218.1 497.6 1217.4 497.6 1216.7 497.6 1216.1 497.6 1215.4 497.6L1215.4 491.6ZM1239.4 487.6C1240.5 487.1 1241.5 486.4 1242.4 485.6L1242.4 489.6C1242.4 490.8 1241.3 492.1 1239.4 493.2L1239.4 487.6Z" fill="#6D6E71"/></g></svg>