<svg width="109" height="109" xmlns="http://www.w3.org/2000/svg" xmlns:xlink="http://www.w3.org/1999/xlink" xml:space="preserve" overflow="hidden"><defs><clipPath id="clip0"><rect x="313" y="112" width="109" height="109"/></clipPath></defs><g clip-path="url(#clip0)" transform="translate(-313 -112)"><path d="M390.208 134.708 390.208 129.031C390.208 128.404 389.7 127.896 389.073 127.896 388.446 127.896 387.938 128.404 387.938 129.031L387.938 134.708 347.062 134.708 347.062 129.031C347.062 128.404 346.554 127.896 345.927 127.896 345.3 127.896 344.792 128.404 344.792 129.031L344.792 134.708 328.896 134.708 328.896 205.104 406.104 205.104 406.104 134.708ZM403.833 202.833 331.167 202.833 331.167 152.875 403.833 152.875ZM331.167 150.604 331.167 136.979 344.792 136.979 344.792 141.521C344.792 142.148 345.3 142.656 345.927 142.656 346.554 142.656 347.062 142.148 347.062 141.521L347.062 136.979 387.938 136.979 387.938 141.521C387.938 142.148 388.446 142.656 389.073 142.656 389.7 142.656 390.208 142.148 390.208 141.521L390.208 136.979 403.833 136.979 403.833 150.604Z" fill="#7F7F7F"/><path d="M359.552 196.021 397.021 196.021 397.021 159.688 337.979 159.688 337.979 196.021 359.552 196.021ZM359.552 193.75 359.552 184.667 375.448 184.667 375.448 193.75ZM359.552 173.312 375.448 173.312 375.448 182.396 359.552 182.396ZM357.281 182.396 340.25 182.396 340.25 173.312 357.281 173.312ZM377.719 173.312 394.75 173.312 394.75 182.396 377.719 182.396ZM377.719 193.75 377.719 184.667 394.75 184.667 394.75 193.75ZM394.75 161.958 394.75 171.042 377.719 171.042 377.719 161.958ZM375.448 161.958 375.448 171.042 359.552 171.042 359.552 161.958ZM357.281 161.958 357.281 171.042 340.25 171.042 340.25 161.958ZM340.25 193.75 340.25 184.667 357.281 184.667 357.281 193.75Z" fill="#7F7F7F"/></g></svg>