<svg width="162" height="162" xmlns="http://www.w3.org/2000/svg" xmlns:xlink="http://www.w3.org/1999/xlink" xml:space="preserve" overflow="hidden"><defs><clipPath id="clip0"><rect x="270" y="167" width="162" height="162"/></clipPath></defs><g clip-path="url(#clip0)" transform="translate(-270 -167)"><path d="M405.881 215.899 408.544 229.438 411.983 229.438 408.544 211.93 320.625 229.407C320.532 229.426 320.534 229.439 320.625 229.439L337.772 229.439Z" fill="#7F7F7F"/><path d="M385.855 197.556 390.94 210.268 394.315 209.592 387.733 193.139 299.039 229.407C298.995 229.426 298.998 229.439 299.039 229.439L307.871 229.439Z" fill="#7F7F7F"/><path d="M425.27 234.5 276.75 234.5 276.75 302 425.27 302ZM421.895 298.625 280.125 298.625 280.125 237.875 421.895 237.875Z" fill="#7F7F7F"/><path d="M351.01 283.438C357.721 283.438 363.16 276.639 363.16 268.25 363.16 259.861 357.72 253.062 351.01 253.062 344.301 253.062 338.86 259.861 338.86 268.25 338.86 276.639 344.299 283.438 351.01 283.438ZM351.01 256.438C355.85 256.438 359.785 261.736 359.785 268.25 359.785 274.764 355.848 280.062 351.01 280.062 346.172 280.062 342.235 274.764 342.235 268.25 342.235 261.736 346.172 256.438 351.01 256.438Z" fill="#7F7F7F"/><path d="M306.987 274.762C310.592 275.762 314.326 273.65 315.327 270.045 315.655 268.859 315.655 267.606 315.326 266.421 314.706 264.145 312.929 262.368 310.654 261.746 307.049 260.743 303.313 262.853 302.31 266.458 301.979 267.646 301.98 268.903 302.311 270.091 302.932 272.366 304.711 274.143 306.987 274.762ZM308.812 264.875C310.677 264.875 312.188 266.386 312.188 268.25 312.188 270.114 310.677 271.625 308.812 271.625 306.948 271.625 305.438 270.114 305.438 268.25 305.438 266.386 306.948 264.875 308.812 264.875Z" fill="#7F7F7F"/><path d="M394.581 274.867C397.783 274.121 400.024 271.234 399.954 267.948L399.954 267.948C399.998 265.719 398.837 263.64 396.917 262.507 393.717 260.505 389.498 261.475 387.495 264.676 386.825 265.746 386.465 266.982 386.454 268.245 386.455 271.979 389.483 275.006 393.217 275.006 393.675 275.006 394.133 274.959 394.581 274.867ZM393.204 264.875C395.068 264.875 396.579 266.386 396.579 268.25 396.579 270.114 395.068 271.625 393.204 271.625 391.34 271.625 389.829 270.114 389.829 268.25 389.829 266.386 391.34 264.875 393.204 264.875Z" fill="#7F7F7F"/><path d="M410.081 291.875 415.144 286.812 415.144 249.688 410.081 244.625 293.625 244.625 286.875 251.375 286.875 285.125 293.625 291.875ZM290.25 252.776 295.026 248 408.684 248 411.769 251.085 411.769 285.419 408.684 288.5 295.026 288.5 290.25 283.731Z" fill="#7F7F7F"/></g></svg>