<svg width="300" height="299" xmlns="http://www.w3.org/2000/svg" xmlns:xlink="http://www.w3.org/1999/xlink" xml:space="preserve" overflow="hidden"><defs><clipPath id="clip0"><rect x="629" y="101" width="300" height="299"/></clipPath></defs><g clip-path="url(#clip0)" transform="translate(-629 -101)"><path d="M87.1149 108.945C85.3947 108.945 84.0003 110.339 84.0003 112.06L83.966 267.854 68.4243 267.854 68.4243 180.646 62.1951 180.646 62.1951 267.854 46.6222 267.854 46.6222 112.06C46.6222 110.339 45.2278 108.945 43.5076 108.945 41.7874 108.945 40.393 110.339 40.393 112.06L40.393 274.083 90.1952 274.083 90.2295 112.06C90.2295 110.339 88.8351 108.945 87.1149 108.945Z" fill="#7F7F7F" transform="matrix(1.00334 0 0 1 629 101)"/><path d="M65.3097 68.5208C77.3507 68.5208 87.1118 58.7597 87.1118 46.7188 87.1118 34.6778 77.3507 24.9167 65.3097 24.9167 53.2687 24.9167 43.5076 34.6778 43.5076 46.7188 43.5213 58.7541 53.2743 68.5071 65.3097 68.5208ZM65.3097 31.1458C73.9103 31.1458 80.8826 38.1181 80.8826 46.7188 80.8826 55.3194 73.9103 62.2917 65.3097 62.2917 56.7091 62.2917 49.7368 55.3194 49.7368 46.7188 49.7471 38.1222 56.7131 31.1561 65.3097 31.1458Z" fill="#7F7F7F" transform="matrix(1.00334 0 0 1 629 101)"/><path d="M255.302 108.945C253.582 108.945 252.188 110.339 252.188 112.06L252.154 267.854 236.612 267.854 236.612 180.646 230.383 180.646 230.383 267.854 214.81 267.854 214.81 112.06C214.81 110.339 213.415 108.945 211.695 108.945 209.975 108.945 208.581 110.339 208.581 112.06L208.581 274.083 258.383 274.083 258.417 112.06C258.417 110.339 257.023 108.945 255.302 108.945Z" fill="#7F7F7F" transform="matrix(1.00334 0 0 1 629 101)"/><path d="M233.497 68.5208C245.538 68.5208 255.299 58.7597 255.299 46.7188 255.299 34.6778 245.538 24.9167 233.497 24.9167 221.456 24.9167 211.695 34.6778 211.695 46.7188 211.709 58.7541 221.462 68.5071 233.497 68.5208ZM233.497 31.1458C242.098 31.1458 249.07 38.1181 249.07 46.7188 249.07 55.3194 242.098 62.2917 233.497 62.2917 224.897 62.2917 217.924 55.3194 217.924 46.7188 217.935 38.1222 224.901 31.1561 233.497 31.1458Z" fill="#7F7F7F" transform="matrix(1.00334 0 0 1 629 101)"/><path d="M283.234 162.765 277.316 100.944C277.067 98.9671 276.47 97.0501 275.553 95.2813 274.899 94.067 274.117 92.9261 273.221 91.8771 267.09 85.3742 259.445 80.4914 250.967 77.6653 239.662 73.7879 227.388 73.7879 216.084 77.6653 208.358 80.2454 201.314 84.5335 195.474 90.2108 196.691 92.0481 197.659 94.038 198.355 96.1285 203.796 90.378 210.575 86.0647 218.089 83.5736 228.092 80.1373 238.955 80.1373 248.958 83.5736 256.424 86.0481 263.165 90.3273 268.58 96.0319 269.152 96.7168 269.652 97.4591 270.072 98.2464 270.625 99.3312 270.99 100.503 271.149 101.71L277.067 163.509C277.599 165.661 277.207 167.936 275.986 169.785 274.802 170.912 273.186 171.466 271.561 171.302 269.84 171.302 268.446 172.696 268.446 174.417 268.446 176.137 269.84 177.531 271.561 177.531 274.993 177.732 278.334 176.382 280.664 173.853 283.096 170.708 284.035 166.659 283.234 162.765Z" fill="#7F7F7F" transform="matrix(1.00334 0 0 1 629 101)"/><path d="M27.2433 171.302C25.6204 171.454 24.0116 170.893 22.8361 169.763 21.6027 167.87 21.2166 165.548 21.7709 163.357L27.6575 101.847C27.8083 100.586 28.1783 99.3611 28.7507 98.2277 29.141 97.4946 29.5999 96.8 30.1211 96.1534 35.5682 90.3802 42.3643 86.051 49.8987 83.5549 54.8575 81.8098 60.0812 80.9384 65.3377 80.9792 70.592 80.9399 75.813 81.8145 80.7674 83.5643 88.228 86.041 94.9627 90.3201 100.374 96.0226 100.448 96.1129 100.498 96.2251 100.573 96.3185 101.264 94.2012 102.233 92.1851 103.454 90.3229 97.6054 84.5986 90.5344 80.2762 82.7732 77.6808 77.2672 75.7538 71.4763 74.7684 65.643 74.7656L65.3471 74.7656C59.4119 74.7503 53.5163 75.7305 47.9054 77.6653 39.3531 80.5173 31.646 85.4551 25.4804 92.0328 24.6384 93.0429 23.9007 94.1355 23.2784 95.2938 22.3413 97.1059 21.7359 99.0708 21.4906 101.096L15.5885 162.634C14.7607 166.565 15.6925 170.661 18.1393 173.847 20.4689 176.376 23.8099 177.729 27.2433 177.531 28.9634 177.531 30.3578 176.137 30.3578 174.417 30.3578 172.696 28.9634 171.302 27.2433 171.302Z" fill="#7F7F7F" transform="matrix(1.00334 0 0 1 629 101)"/><path d="M171.209 108.945C169.488 108.945 168.094 110.339 168.094 112.06L168.06 267.854 152.518 267.854 152.518 180.646 146.289 180.646 146.289 267.854 130.716 267.854 130.716 112.06C130.716 110.339 129.322 108.945 127.601 108.945 125.881 108.945 124.487 110.339 124.487 112.06L124.487 274.083 174.289 274.083 174.323 112.06C174.323 110.339 172.929 108.945 171.209 108.945Z" fill="#7F7F7F" transform="matrix(1.00334 0 0 1 629 101)"/><path d="M149.403 68.5208C161.444 68.5208 171.206 58.7597 171.206 46.7188 171.206 34.6778 161.444 24.9167 149.403 24.9167 137.362 24.9167 127.601 34.6778 127.601 46.7188 127.615 58.7541 137.368 68.5071 149.403 68.5208ZM149.403 31.1458C158.004 31.1458 164.976 38.1181 164.976 46.7188 164.976 55.3194 158.004 62.2917 149.403 62.2917 140.803 62.2917 133.831 55.3194 133.831 46.7188 133.841 38.1222 140.807 31.1561 149.403 31.1458Z" fill="#7F7F7F" transform="matrix(1.00334 0 0 1 629 101)"/><path d="M193.216 100.944C192.967 98.9671 192.37 97.0501 191.453 95.2813 190.799 94.067 190.017 92.9261 189.121 91.8771 178.772 81.0053 164.441 74.8207 149.431 74.75 143.496 74.7341 137.601 75.7143 131.99 77.6497 123.437 80.5017 115.73 85.4396 109.565 92.0173 108.723 93.0273 107.985 94.1199 107.363 95.2782 106.426 97.0956 105.823 99.0662 105.581 101.096L99.6822 162.634C98.8544 166.565 99.7863 170.661 102.233 173.847 104.563 176.376 107.904 177.729 111.337 177.531 113.057 177.531 114.452 176.137 114.452 174.417 114.452 172.696 113.057 171.302 111.337 171.302 109.714 171.454 108.105 170.893 106.93 169.763 105.697 167.87 105.31 165.547 105.865 163.357L111.751 101.847C111.902 100.586 112.272 99.3611 112.844 98.2277 113.235 97.4946 113.694 96.8 114.215 96.1534 119.662 90.3802 126.458 86.051 133.992 83.5549 138.954 81.8195 144.176 80.9483 149.431 80.9792 154.685 80.9409 159.906 81.8154 164.861 83.5643 172.322 86.041 179.056 90.3201 184.467 96.0226 185.039 96.7075 185.539 97.4497 185.959 98.2371 186.513 99.3219 186.877 100.493 187.037 101.7L192.955 163.5C193.486 165.651 193.094 167.926 191.874 169.776 190.696 170.901 189.088 171.458 187.467 171.302 185.747 171.302 184.352 172.696 184.352 174.417 184.352 176.137 185.747 177.531 187.467 177.531 190.899 177.732 194.241 176.382 196.571 173.853 199.003 170.708 199.941 166.659 199.14 162.765Z" fill="#7F7F7F" transform="matrix(1.00334 0 0 1 629 101)"/></g></svg>